<svg version="1.1" viewBox="0 0 250 90" xmlns="http://www.w3.org/2000/svg">
 <path d="m170.83183 66.284365v-66.284145h59.69401c5.11409 0.005866381 10.19429 2.1217936 13.80064 5.7479452 3.58757 3.6072324 5.67359 8.6646318 5.67264 13.751511v46.784322h-10.06304v-47.034376c-0.0628-2.305558-0.94375-4.580831-2.45397-6.32417-1.83741-2.121427-4.59572-3.4160623-7.4019-3.4741388h-14.89764v56.832685h-10.06303v-56.832685h-24.22446v56.832685zm-20.89015-29.658181h-26.86799c-2.52599 0.0418-5.02514 1.049787-6.8649 2.780954-1.70257 1.602033-2.83023 3.802729-3.13779 6.120166-0.30865 2.317438 0.20403 4.735117 1.42371 6.72983 0.93224 1.524817 2.2678 2.800533 3.83388 3.661569 1.56604 0.861111 3.35881 1.306882 5.14569 1.275497l26.46761-1.1e-4zm-40.0732-27.174504 4.72552-9.4514598h24.68056c3.58553 0.011072781 7.16276 0.98034418 10.26835 2.7731077 3.1055 1.7922501 5.73182 4.4062324 7.53829 7.5030913 1.7976 3.081458 2.77971 6.633693 2.82041 10.200888v45.806838h-38.34555c-4.09165-0.0836-8.144-1.519244-11.38077-4.023599-3.23692-2.504354-5.64117-6.066782-6.75249-10.005832-1.58582-5.620279-0.43734-11.946134 3.0242-16.649499 3.46101-4.703657 9.15814-7.682015 14.99591-7.840407h28.49811v-6.598276c-0.0523-1.472093-0.38085-2.933699-0.9552-4.290151-0.93436-2.206784-2.5372-4.125381-4.54226-5.437907-2.00512-1.312528-4.40461-2.0137066-6.80096-1.9874542zm-12.028996 0h-11.581679c-2.9986 0.1170998-5.917708 1.5958732-7.785414 3.9449152-1.524084 1.917131-2.333789 4.319703-2.720017 6.738189-0.386051 2.418412-0.379796 4.880236-0.379796 7.329446v38.819988h-9.960371v-44.325579c-0.204017-5.614412 1.968021-11.276634 5.874293-15.314899 2.495998-2.5799572 5.677625-4.4779488 9.117079-5.5055906 3.439456-1.0274218 7.076674-1.1381496 10.666534-1.1381496h11.495157zm-53.493252 0v47.742007h-9.463925c-3.081532 0-6.18697-0.03131-9.202873-0.663326-3.016049-0.631954-5.944102-1.876065-8.279651-3.886398-2.476343-2.13162-4.202231-5.043321-5.262429-8.133726-1.06064-3.090772-1.486393-6.366115-1.655931-9.628917-0.283545-5.449494 0.190459-11.138043 2.86697-15.89347 1.653144-2.936927 4.115627-5.412902 7.04346-7.082179 2.927834-1.669203 6.312803-2.5270868 9.682448-2.4539037zm-32.965347 80.01732h18.509871c4.487629 0 9.103144-0.254125 13.164874-2.161763 4.06217-1.907297 7.364498-5.321014 9.267402-9.385456 1.444155-3.083879 2.130887-6.519007 1.983275-9.920769v-67.997859h-26.488873c-7.239324 0.08360315-14.393878 3.2312714-19.347296 8.5113734-6.1248602 6.5296394-8.6448339 15.834073-8.4607764 24.78469 0.13813107 6.709519 1.7148139 13.464793 5.1437821 19.233636 3.428895 5.768698 8.7914938 10.489074 15.173373 12.564304 2.652261 0.862137 5.452793 1.266624 8.240787 1.189921h15.778342c0.03132 0.703069 0.03132 1.407709 0 2.110793-0.0836 1.848861-0.412236 3.700802-1.125464 5.408649-0.713534 1.707921-1.831333 3.269331-3.327259 4.359229-1.545128 1.125683-3.430581 1.70924-5.324906 1.966408-1.894398 0.257445-3.81505 0.206232-5.72646 0.16942-4.292278-0.0836-8.58617-0.0836-12.878154 0z" style="fill:#444;stroke-width:.733296"/>
</svg>
