<svg version="1" viewBox="0 0 64 64" xmlns="http://www.w3.org/2000/svg">
 <circle cx="32" cy="33" r="28" style="opacity:.2"/>
 <circle cx="32" cy="32" r="28" style="fill:#39393d"/>
 <path d="m40.333189 37.605536v-10.605501h9.551076c0.818257 9.39e-4 1.631092 0.339488 2.20811 0.919675 0.574013 0.577159 0.907777 1.386346 0.907625 2.200249v7.485518h-1.610092v-7.525527c-0.01005-0.36889-0.151-0.732935-0.392636-1.01187-0.293987-0.33943-0.735318-0.546572-1.184308-0.555865h-2.383631v9.093262h-1.610091v-9.093262h-3.875927v9.093262zm-3.342435-4.745326h-4.298894c-0.40416 0.0067-0.804025 0.167967-1.098388 0.444954-0.272412 0.256327-0.452838 0.608439-0.502049 0.97923-0.04938 0.370792 0.03264 0.757622 0.227796 1.076777 0.149158 0.243971 0.362849 0.448087 0.613422 0.585853 0.250568 0.137778 0.537412 0.209102 0.823314 0.20408l4.234832-1.7e-5zm-6.411736-4.347936 0.756087-1.512239h3.948903c0.573687 0.0018 1.146046 0.156856 1.642942 0.443699 0.496882 0.286761 0.917095 0.705 1.206131 1.200499 0.287617 0.493035 0.444755 1.061394 0.451267 1.632148v7.32912h-6.135309c-0.654667-0.01338-1.303045-0.24308-1.820931-0.643778-0.517909-0.400699-0.90259-0.970689-1.080402-1.600939-0.253732-0.899248-0.06998-1.911388 0.483873-2.663929 0.553764-0.752588 1.465309-1.229127 2.399355-1.25447h4.559714v-1.055728c-0.0084-0.235536-0.06094-0.469393-0.152832-0.686427-0.149499-0.353086-0.405954-0.660063-0.726765-0.870068-0.32082-0.210005-0.70474-0.322194-1.088157-0.317994zm-1.924646 0h-1.853075c-0.479778 0.01874-0.946837 0.255341-1.245671 0.631189-0.243854 0.306742-0.373407 0.691155-0.435204 1.078114-0.06177 0.386947-0.06077 0.78084-0.06077 1.172715v6.21122h-1.593663v-7.092117c-0.03264-0.898309 0.314885-1.804268 0.939891-2.450393 0.399361-0.412794 0.908423-0.716474 1.458737-0.880897 0.550315-0.164389 1.132272-0.182105 1.706652-0.182105h1.839231zm-8.55895 0v7.638748h-1.514233c-0.493047 0-0.989919-5e-3 -1.472465-0.106132-0.48257-0.101113-0.95106-0.300172-1.324749-0.621826-0.396216-0.341061-0.672359-0.806934-0.841992-1.301401-0.169703-0.494525-0.237823-1.018582-0.26495-1.540632-0.04537-0.871922 0.03047-1.782093 0.458717-2.542964 0.264504-0.46991 0.658503-0.866068 1.126958-1.133153 0.468455-0.267073 1.010052-0.404335 1.549197-0.392626zm-5.274474 12.802816h2.96159c0.718023 0 1.456508-0.04066 2.106387-0.345883 0.649949-0.305168 1.178324-0.851365 1.482789-1.501678 0.231066-0.493423 0.340944-1.043045 0.317326-1.587329v-10.879696h-4.238235c-1.158296 0.01338-2.303029 0.517006-3.095578 1.361825-0.979981 1.044746-1.383179 2.533461-1.353729 3.965564 0.0221 1.073527 0.274371 2.154375 0.823008 3.077393 0.548625 0.922995 1.406644 1.678258 2.427748 2.010296 0.424363 0.137942 0.87245 0.20266 1.318531 0.190388h2.524543c5e-3 0.112491 5e-3 0.225234 0 0.337728-0.01338 0.295819-0.06596 0.59213-0.180075 0.865387-0.114166 0.273268-0.293014 0.523094-0.532363 0.697479-0.247221 0.18011-0.548895 0.273479-0.851988 0.314626-0.303105 0.04119-0.61041 0.033-0.916237 0.02711-0.686767-0.01338-1.373792-0.01338-2.060512 0z" style="opacity:.2"/>
 <path d="m39.333189 36.605536v-10.605501h9.551076c0.818257 9.39e-4 1.631092 0.339488 2.20811 0.919675 0.574013 0.577159 0.907777 1.386346 0.907625 2.200249v7.485518h-1.610092v-7.525527c-0.01005-0.36889-0.151-0.732935-0.392636-1.01187-0.293987-0.33943-0.735318-0.546572-1.184308-0.555865h-2.383631v9.093262h-1.610091v-9.093262h-3.875927v9.093262zm-3.342435-4.745326h-4.298894c-0.40416 0.0067-0.804025 0.167967-1.098388 0.444954-0.272412 0.256327-0.452838 0.608439-0.502049 0.97923-0.04938 0.370792 0.03264 0.757622 0.227796 1.076777 0.149158 0.243971 0.362849 0.448087 0.613422 0.585853 0.250568 0.137778 0.537412 0.209102 0.823314 0.20408l4.234832-1.7e-5zm-6.411736-4.347936 0.756087-1.512239h3.948903c0.573687 0.0018 1.146046 0.156856 1.642942 0.443699 0.496882 0.286761 0.917095 0.705 1.206131 1.200499 0.287617 0.493035 0.444755 1.061394 0.451267 1.632148v7.32912h-6.135309c-0.654667-0.01338-1.303045-0.24308-1.820931-0.643778-0.517909-0.400699-0.90259-0.970689-1.080402-1.600939-0.253732-0.899248-0.06998-1.911388 0.483873-2.663929 0.553764-0.752588 1.465309-1.229127 2.399355-1.25447h4.559714v-1.055728c-0.0084-0.235536-0.06094-0.469393-0.152832-0.686427-0.149499-0.353086-0.405954-0.660063-0.726765-0.870068-0.32082-0.210005-0.70474-0.322194-1.088157-0.317994zm-1.924646 0h-1.853075c-0.479778 0.01874-0.946837 0.255341-1.245671 0.631189-0.243854 0.306742-0.373407 0.691155-0.435204 1.078114-0.06177 0.386947-0.06077 0.78084-0.06077 1.172715v6.21122h-1.593663v-7.092117c-0.03264-0.898309 0.314885-1.804268 0.939891-2.450393 0.399361-0.412794 0.908423-0.716474 1.458737-0.880897 0.550315-0.164389 1.132272-0.182105 1.706652-0.182105h1.839231zm-8.55895 0v7.638748h-1.514233c-0.493047 0-0.989919-5e-3 -1.472465-0.106132-0.48257-0.101113-0.95106-0.300172-1.324749-0.621826-0.396216-0.341061-0.672359-0.806934-0.841992-1.301401-0.169703-0.494525-0.237823-1.018582-0.26495-1.540632-0.04537-0.871922 0.03047-1.782093 0.458717-2.542964 0.264504-0.46991 0.658503-0.866068 1.126958-1.133153 0.468455-0.267073 1.010052-0.404335 1.549197-0.392626zm-5.274474 12.802816h2.96159c0.718023 0 1.456508-0.04066 2.106387-0.345883 0.649949-0.305168 1.178324-0.851365 1.482789-1.501678 0.231066-0.493423 0.340944-1.043045 0.317326-1.587329v-10.879696h-4.238235c-1.158296 0.01338-2.303029 0.517006-3.095578 1.361825-0.979981 1.044746-1.383179 2.533461-1.353729 3.965564 0.0221 1.073527 0.274371 2.154375 0.823008 3.077393 0.548625 0.922995 1.406644 1.678258 2.427748 2.010296 0.424363 0.137942 0.87245 0.20266 1.318531 0.190388h2.524543c5e-3 0.112491 5e-3 0.225234 0 0.337728-0.01338 0.295819-0.06596 0.59213-0.180075 0.865387-0.114166 0.273268-0.293014 0.523094-0.532363 0.697479-0.247221 0.18011-0.548895 0.273479-0.851988 0.314626-0.303105 0.04119-0.61041 0.033-0.916237 0.02711-0.686767-0.01338-1.373792-0.01338-2.060512 0z" style="fill:#fff"/>
 <path d="M 32 4 A 28 28 0 0 0 4 32 A 28 28 0 0 0 4.0175781 32.492188 A 28 28 0 0 1 32 5 A 28 28 0 0 1 59.974609 32.492188 A 28 28 0 0 0 60 32 A 28 28 0 0 0 32 4 z" style="fill:#fff;opacity:.1"/>
</svg>
