<svg version="1.1" viewBox="0 0 16 16" xmlns="http://www.w3.org/2000/svg">
 <defs>
  <style type="text/css">.ColorScheme-Text { color:#dfdfdf; } .ColorScheme-Highlight { color:#4285f4; } .ColorScheme-NeutralText { color:#ff9800; } .ColorScheme-PositiveText { color:#4caf50; } .ColorScheme-NegativeText { color:#f44336; }</style>
 </defs>
 <path d="m3 0c-1.662 0-3 1.338-3 3v10c0 1.662 1.338 3 3 3h10c1.662 0 3-1.338 3-3v-10c0-1.662-1.338-3-3-3h-10zm0 4h1.6601562 2.9023438v1.3359375h-2.9023438v2.0644531h2.5859376v1.3300782h-2.5859376v3.2695312h-1.6601562v-8zm8.378906 1.9453125c0.238094 0 0.455823 0.040508 0.652344 0.1210937 0.200301 0.0805858 0.372013 0.2089421 0.515625 0.3847657 0.143612 0.1758235 0.25462 0.4078894 0.333984 0.6972656 0.079365 0.2893762 0.119141 0.6473588 0.119141 1.0722656v3.7792969h-1.59375v-3.7910156c0-0.2564093-0.025215-0.4545564-0.078125-0.59375-0.05291-0.1428566-0.132462-0.2419302-0.238281-0.296875-0.10204-0.0586079-0.233976-0.0878906-0.396485-0.0878906-0.15117 0-0.285186 0.0405079-0.402343 0.1210937-0.11164 0.0767909-0.207834 0.1836513-0.285157 0.3203125v4.328125h-1.5917965v-5.9453125h1.484375l0.0507813 0.5898437c0.1680622-0.2129813 0.3620832-0.3787804 0.5839842-0.4960937 0.249431-0.1355306 0.532025-0.203125 0.845703-0.203125z" style="fill-rule:evenodd;fill:#444"/>
</svg>
