<svg version="1.1" viewBox="0 0 24 24" xmlns="http://www.w3.org/2000/svg">
 <defs>
  <style type="text/css">.ColorScheme-Text { color:#dfdfdf; } .ColorScheme-Highlight { color:#4285f4; } .ColorScheme-NeutralText { color:#ff9800; } .ColorScheme-PositiveText { color:#4caf50; } .ColorScheme-NegativeText { color:#f44336; }</style>
 </defs>
 <path d="m6 4c-1.108 0-2 0.892-2 2v12c0 1.108 0.892 2 2 2h12c1.108 0 2-0.892 2-2v-12c0-1.108-0.892-2-2-2h-12zm1 4h1.6601562 2.9042968v1.3359375h-2.9042968v2.0644535h2.5859378v1.330078h-2.5859378v3.269531h-1.6601562v-8zm8.378906 1.9453125c0.238096 0 0.45582 0.0405074 0.652344 0.1210935 0.200303 0.080587 0.372012 0.208941 0.515625 0.384766s0.254619 0.407887 0.333984 0.697266c0.079366 0.289378 0.119141 0.647355 0.119141 1.072265v3.779297h-1.59375v-3.791016c0-0.256411-0.025215-0.454555-0.078125-0.59375-0.05291-0.142857-0.132461-0.241929-0.238281-0.296875-0.102041-0.058608-0.233975-0.08789-0.396485-0.08789-0.151172 0-0.285185 0.040507-0.402343 0.121093-0.111642 0.076792-0.207833 0.183651-0.285157 0.320313v4.328125h-1.591797v-5.945312h1.484376l0.050781 0.589843c0.168064-0.212983 0.362081-0.378779 0.583984-0.496093 0.249434-0.135532 0.532021-0.2031255 0.845703-0.2031255z" style="fill-rule:evenodd;fill:#444"/>
</svg>
