<svg version="1.1" viewBox="0 0 16 16" xmlns="http://www.w3.org/2000/svg">
 <defs>
  <style type="text/css">.ColorScheme-Text { color:#dfdfdf; } .ColorScheme-Highlight { color:#4285f4; } .ColorScheme-NeutralText { color:#ff9800; } .ColorScheme-PositiveText { color:#4caf50; } .ColorScheme-NegativeText { color:#f44336; }</style>
 </defs>
 <path class="ColorScheme-Text" d="m1 0c-0.554 0-1 0.446-1 1v14c0 0.554 0.446 1 1 1h14c0.554 0 1-0.446 1-1v-14c0-0.554-0.446-1-1-1zm0.5 1a0.5 0.5 0 0 1 0.5 0.5 0.5 0.5 0 0 1-0.5 0.5 0.5 0.5 0 0 1-0.5-0.5 0.5 0.5 0 0 1 0.5-0.5zm6.5 0a7 7 0 0 1 7 7 7 7 0 0 1-7 7 7 7 0 0 1-7-7 7 7 0 0 1 7-7zm6.5 0a0.5 0.5 0 0 1 0.5 0.5 0.5 0.5 0 0 1-0.5 0.5 0.5 0.5 0 0 1-0.5-0.5 0.5 0.5 0 0 1 0.5-0.5zm-13 13a0.5 0.5 0 0 1 0.5 0.5 0.5 0.5 0 0 1-0.5 0.5 0.5 0.5 0 0 1-0.5-0.5 0.5 0.5 0 0 1 0.5-0.5zm13 0a0.5 0.5 0 0 1 0.5 0.5 0.5 0.5 0 0 1-0.5 0.5 0.5 0.5 0 0 1-0.5-0.5 0.5 0.5 0 0 1 0.5-0.5z" style="fill:#444"/>
 <circle class="ColorScheme-Text" cx="8" cy="8" r="2" style="fill:#444"/>
 <path class="ColorScheme-Text" d="m9.002 2.1016c-0.553-0.0011-1.002 0.4469-1.002 1v1.8984a3 3 0 0 1 2.344 1.1289c0.789-0.1705 1.455-0.3276 2.129-0.4863 0.894-0.2108 0.533-0.9895 0.175-1.4297-0.873-1.0736-2.091-1.8135-3.447-2.0918-0.066-0.0132-0.132-0.0197-0.199-0.0196z" style="fill:#444"/>
 <path class="ColorScheme-Text" d="m13.897 9c1e-3 -0.6-0.447-1-1-1h-1.898a3 3 0 0 1-1.129 2.3c0.17 0.8 0.327 1.5 0.486 2.2 0.211 0.9 0.989 0.5 1.43 0.1 1.073-0.8 1.813-2 2.092-3.4 0.013-0.1 0.019-0.1 0.019-0.2z" style="fill:#444"/>
 <path class="ColorScheme-Text" d="m6.9969 13.9c0.5531 0 1.0021-0.4 1.0021-1v-1.9a3 3 0 0 1-2.3439-1.1c-0.7895 0.1-1.4554 0.3-2.1289 0.5-0.8942 0.2-0.533 0.9-0.1758 1.4 0.8736 1.1 2.0915 1.8 3.4473 2.1h0.1992z" style="fill:#444"/>
 <path class="ColorScheme-Text" d="m2.1018 7c-1e-3 0.6 0.447 1 1 1h1.8985a3 3 0 0 1 1.1289-2.3c-0.1705-0.8-0.3276-1.5-0.4863-2.2-0.2109-0.9-0.9895-0.5-1.4297-0.1-1.0736 0.8-1.8135 2-2.0918 3.4-0.013 0.1-0.02 0.1-0.02 0.2z" style="fill:#444"/>
</svg>
